<svg xmlns="http://www.w3.org/2000/svg" width="176" height="42" viewBox="0 0 176 42"><path d="m12.21 36.459 8.108-22.496h3.03l-9.954 26.545h-2.39L1 13.963h3.034L12.21 36.46zm73.888 2.056c2.053 0 3.777-.57 5.165-1.746a6.072 6.072 0 0 0 2.253-4.478h2.835a8.304 8.304 0 0 1-1.528 4.43 9.627 9.627 0 0 1-3.732 3.14A11.383 11.383 0 0 1 86.098 41c-3.504 0-6.277-1.211-8.318-3.634-2.042-2.422-3.062-5.68-3.06-9.773v-.876a16.59 16.59 0 0 1 1.378-6.953 10.559 10.559 0 0 1 3.956-4.656 10.894 10.894 0 0 1 6.044-1.647c2.922 0 5.333.866 7.232 2.6 1.9 1.734 2.913 4.017 3.042 6.852h-2.835a7.084 7.084 0 0 0-2.25-5.034 7.14 7.14 0 0 0-5.189-1.912c-2.663 0-4.73.956-6.199 2.869-1.469 1.913-2.206 4.593-2.21 8.042v.872c0 3.381.735 6.021 2.207 7.92 1.458 1.902 3.532 2.845 6.202 2.845zm43.068 1.993a14.089 14.089 0 0 1-.572-3.707 10.226 10.226 0 0 1-3.952 3.103A12.123 12.123 0 0 1 119.554 41c-2.57 0-4.644-.712-6.223-2.136a6.969 6.969 0 0 1-2.38-5.4 7.102 7.102 0 0 1 3.246-6.136c2.158-1.506 5.168-2.258 9.03-2.258h5.343v-3.02c0-1.898-.582-3.389-1.752-4.478s-2.887-1.63-5.137-1.63c-2.053 0-3.754.523-5.102 1.568-1.345 1.047-2.014 2.31-2.014 3.78l-2.965-.021c0-2.116.988-3.944 2.965-5.487 1.976-1.543 4.4-2.317 7.274-2.321 2.971 0 5.318.74 7.04 2.22 1.721 1.48 2.603 3.547 2.645 6.202v12.565c0 2.56.27 4.48.81 5.763v.3l-3.168-.003zm-9.265-2.095a9.879 9.879 0 0 0 5.284-1.424 8.317 8.317 0 0 0 3.385-3.829v-5.832h-5.256c-2.941.03-5.24.564-6.9 1.602-1.658 1.038-2.486 2.467-2.484 4.286a4.721 4.721 0 0 0 1.665 3.707c1.086.984 2.533 1.473 4.306 1.473v.017zm32.857 2.095h-2.954V2.812h2.954v37.696zm17.926-34.224a1.982 1.982 0 0 1 .54-1.396c.39-.39.927-.597 1.479-.569.54-.033 1.068.16 1.457.534.39.374.603.893.59 1.431a1.895 1.895 0 0 1-.555 1.397 2.005 2.005 0 0 1-1.492.558 1.967 1.967 0 0 1-1.479-.558 1.923 1.923 0 0 1-.54-1.397zm3.473 34.227h-2.95V13.963h2.95v26.548zM53.9 1l-2.863 4.89-2.82 4.914-2.821-4.914L42.533 1l5.683.024L53.9 1zm5.795 19.237a13.524 13.524 0 0 1-1.888 16.819 13.341 13.341 0 0 1-11.294 3.818 1.103 1.103 0 0 1-.967-1.25 1.132 1.132 0 0 1 1.268-.967 11.148 11.148 0 0 0 9.395-3.176 11.286 11.286 0 0 0 1.582-14.037c-2.829-4.474-8.388-6.401-13.394-4.643-5.005 1.757-8.122 6.731-7.51 11.982a1.125 1.125 0 0 1-.987 1.236 1.138 1.138 0 0 1-1.251-.991c-.731-6.29 3.005-12.248 9.001-14.353 5.996-2.104 12.656.205 16.045 5.562zm-5.336 1.259a8.577 8.577 0 0 1 2.47 7.267 1.125 1.125 0 0 1-1.263.965 1.122 1.122 0 0 1-.969-1.259 6.376 6.376 0 0 0-1.829-5.389 6.568 6.568 0 0 0-8.123-.911 6.51 6.51 0 0 0-2.688 7.69 6.55 6.55 0 0 0 6.936 4.31 1.125 1.125 0 0 1 .266 2.23c-.345.038-.69.057-1.037.056a8.793 8.793 0 0 1-8.488-6.505 8.75 8.75 0 0 1 4.108-9.852 8.824 8.824 0 0 1 10.617 1.398zm-2.343 3.548a4.62 4.62 0 0 1 .277 4.766 4.655 4.655 0 0 1-3.87 2.475l-.22.006-.24-.006a4.669 4.669 0 0 1-3.044-1.351 4.576 4.576 0 0 1-1.31-3.84c.035-.412.294-.771.675-.935.38-.165.821-.108 1.147.148.326.256.485.67.413 1.077-.102.72.142 1.445.659 1.958.792.791 2.029.93 2.978.335a2.386 2.386 0 0 0 .985-2.82 2.4 2.4 0 0 0-2.544-1.578 1.13 1.13 0 0 1-1.078-.424 1.12 1.12 0 0 1-.133-1.147c.17-.378.537-.631.952-.66a4.66 4.66 0 0 1 4.353 1.996z" fill="#B6D741" fill-rule="nonzero" stroke="#B6D741" stroke-width=".75"></path></svg>